<svg xmlns="http://www.w3.org/2000/svg" width="1500" height="520" viewBox="0 0 1500 520">
  <defs>
    <linearGradient id="bg" x1="0" y1="0" x2="1" y2="1">
      <stop stop-color="#050816"/>
      <stop offset="0.55" stop-color="#071426"/>
      <stop offset="1" stop-color="#160720"/>
    </linearGradient>

    <linearGradient id="neon">
      <stop stop-color="#00e5ff"/>
      <stop offset="1" stop-color="#8b5cf6"/>
    </linearGradient>

    <pattern id="grid" width="40" height="40" patternUnits="userSpaceOnUse">
      <path d="M40 0H0V40" fill="none" stroke="#15354d"
            stroke-width="1" opacity=".35"/>
    </pattern>

    <filter id="glow">
      <feGaussianBlur stdDeviation="5" result="blur"/>
      <feMerge>
        <feMergeNode in="blur"/>
        <feMergeNode in="SourceGraphic"/>
      </feMerge>
    </filter>
  </defs>

  <rect width="1500" height="520" fill="url(#bg)"/>
  <rect width="1500" height="520" fill="url(#grid)"/>

  <g filter="url(#glow)">
    <text x="65" y="72" fill="#00e5ff"
          font-family="monospace" font-size="23">
      ROOTBYPRABASH // CYBER OPERATIONS
    </text>

    <text x="65" y="118" fill="#f8fafc"
          font-family="monospace" font-size="40" font-weight="700">
      LEARN • TEST • INVESTIGATE • DEFEND
    </text>
  </g>

  <g transform="translate(65 160)">
    <rect width="395" height="235" rx="15"
          fill="#06111d" stroke="#00e5ff" stroke-width="2"/>

    <circle cx="25" cy="23" r="6" fill="#ff5f57"/>
    <circle cx="46" cy="23" r="6" fill="#febc2e"/>
    <circle cx="67" cy="23" r="6" fill="#28c840"/>

    <text x="24" y="63" fill="#7dd3fc"
          font-family="monospace" font-size="18">
      $ nmap -sV 10.10.10.10
    </text>

    <text x="24" y="98" fill="#22c55e"
          font-family="monospace" font-size="17">
      22/tcp   open   ssh
    </text>

    <text x="24" y="128" fill="#22c55e"
          font-family="monospace" font-size="17">
      80/tcp   open   http
    </text>

    <text x="24" y="158" fill="#22c55e"
          font-family="monospace" font-size="17">
      443/tcp  open   https
    </text>

    <text x="24" y="202" fill="#c084fc"
          font-family="monospace" font-size="17">
      status: enumeration active
    </text>
  </g>

  <g transform="translate(540 150)">
    <rect width="420" height="255" rx="15"
          fill="#06111d" stroke="#8b5cf6" stroke-width="2"/>

    <circle cx="210" cy="125" r="75"
            fill="#091b2d" stroke="#22c55e" stroke-width="3"/>

    <path d="M210 65 L258 85 V125
             C258 165 233 192 210 204
             C187 192 162 165 162 125
             V85 Z"
          fill="none" stroke="#22c55e" stroke-width="5"/>

    <path d="M185 127 L204 146 L239 106"
          fill="none" stroke="#00e5ff" stroke-width="6"
          stroke-linecap="round" stroke-linejoin="round"/>

    <text x="72" y="235" fill="#f8fafc"
          font-family="monospace" font-size="19">
      FORENSICS • THREAT HUNTING
    </text>
  </g>

  <g transform="translate(1030 150)">
    <rect width="405" height="255" rx="15"
          fill="#06111d" stroke="#00e5ff" stroke-width="2"/>

    <text x="25" y="42" fill="#00e5ff"
          font-family="monospace" font-size="18">
      SOC ANALYST CONSOLE
    </text>

    <text x="25" y="82" fill="#f8fafc"
          font-family="monospace" font-size="16">
      [+] packet capture loaded
    </text>

    <text x="25" y="112" fill="#f8fafc"
          font-family="monospace" font-size="16">
      [+] memory image mounted
    </text>

    <text x="25" y="142" fill="#f8fafc"
          font-family="monospace" font-size="16">
      [+] indicators correlated
    </text>

    <text x="25" y="185" fill="#22c55e"
          font-family="monospace" font-size="19">
      INCIDENT CONTAINED
    </text>

    <path d="M30 225 L85 207 L135 232 L190 197
             L240 218 L295 187 L370 207"
          fill="none" stroke="url(#neon)" stroke-width="4"/>
  </g>

  <rect x="65" y="447" width="1370" height="2" fill="url(#neon)"/>

  <text x="65" y="486" fill="#94a3b8"
        font-family="monospace" font-size="18">
    DIGITAL FORENSICS • NETWORK SECURITY • ETHICAL HACKING • CTF
  </text>

  <text x="1200" y="486" fill="#22c55e"
        font-family="monospace" font-size="18">
    AUTHORIZED USE ONLY
  </text>
</svg>
